<?xml version="1.0" encoding="UTF-8"?>
<!DOCTYPE svg PUBLIC "-//W3C//DTD SVG 1.0//EN" "http://www.w3.org/TR/2001/REC-SVG-20010904/DTD/svg10.dtd">
<!-- Creator: CorelDRAW 2018 (64-Bit) -->
<svg xmlns="http://www.w3.org/2000/svg" xml:space="preserve" width="100mm" height="100mm" version="1.0" style="shape-rendering:geometricPrecision; text-rendering:geometricPrecision; image-rendering:optimizeQuality; fill-rule:evenodd; clip-rule:evenodd"
viewBox="0 0 100 100"
 xmlns:xlink="http://www.w3.org/1999/xlink">
 <defs>
  <style type="text/css">
   <![CDATA[
    .fil0 {fill:#00A2E9}
   ]]>
  </style>
 </defs>
 <g id="Layer_x0020_1">
  <metadata id="CorelCorpID_0Corel-Layer"/>
  <g id="_2254048153696">
   <path class="fil0" d="M31.0341 88.9992l41.4543 -41.4543c1.9337,-1.9336 1.9337,-5.0975 0,-7.0312l0 0c-1.9336,-1.9336 -5.0975,-1.9336 -7.0311,0l-37.9454 37.9454 -17.2115 -17.2115c-1.9337,-1.9336 -5.0976,-1.9336 -7.0312,0l0 0c-1.9336,1.9336 -1.9336,5.0975 0,7.0311l20.7271 20.7271c1.9056,1.9056 5.0061,1.9332 6.9463,0.0826 0.0285,-0.0271 0.0569,-0.0545 0.0849,-0.0826l0.0066 -0.0066z"/>
   <path class="fil0" d="M68.9663 11.0011l-41.4543 41.4543c-1.9337,1.9336 -1.9337,5.0975 0,7.0311l0 0c1.9336,1.9336 5.0975,1.9336 7.0311,0l37.9454 -37.9454 17.2115 17.2116c1.9337,1.9336 5.0976,1.9336 7.0312,0l0 0c1.9336,-1.9337 1.9336,-5.0976 0,-7.0312l-20.7271 -20.7271c-1.9056,-1.9056 -5.0061,-1.9332 -6.9464,-0.0826 -0.0284,0.0271 -0.0568,0.0546 -0.0848,0.0826l-0.0066 0.0067z"/>
  </g>
 </g>
</svg>
