<?xml version="1.0" encoding="UTF-8"?>
<!DOCTYPE svg PUBLIC "-//W3C//DTD SVG 1.1//EN" "http://www.w3.org/Graphics/SVG/1.1/DTD/svg11.dtd">
<!-- Creator: CorelDRAW 2018 (64-Bit) -->
<svg xmlns="http://www.w3.org/2000/svg" xml:space="preserve" width="210mm" height="297mm" version="1.1" style="shape-rendering:geometricPrecision; text-rendering:geometricPrecision; image-rendering:optimizeQuality; fill-rule:evenodd; clip-rule:evenodd"
viewBox="0 0 21000 29700"
 xmlns:xlink="http://www.w3.org/1999/xlink">
 <defs>
  <style type="text/css">
   <![CDATA[
    .fil1 {fill:#FEFEFE}
    .fil0 {fill:#00A2E9}
   ]]>
  </style>
 </defs>
 <g id="Layer_x0020_1">
  <metadata id="CorelCorpID_0Corel-Layer"/>
  <g id="_2070817822272">
   <rect class="fil0" x="4573.24" y="8923.24" width="11853.53" height="11853.53"/>
   <g>
    <path class="fil1" d="M9415.41 16884l2370.58 -2370.58c110.58,-110.57 110.58,-291.5 0,-402.08l0 0c-110.57,-110.57 -291.5,-110.57 -402.07,0l-2169.93 2169.92 -984.24 -984.24c-110.58,-110.58 -291.51,-110.58 -402.08,0l0 0c-110.58,110.57 -110.58,291.5 0,402.07l1185.29 1185.29c108.97,108.97 286.27,110.55 397.22,4.72 1.63,-1.55 3.25,-3.12 4.85,-4.72l0.38 -0.38z"/>
    <path class="fil1" d="M11584.58 12423.65l-2370.58 2370.58c-110.58,110.57 -110.58,291.5 0,402.08l0 0c110.57,110.57 291.5,110.57 402.08,0l2169.92 -2169.92 984.24 984.24c110.58,110.58 291.51,110.58 402.08,0l0 0c110.58,-110.57 110.58,-291.5 0,-402.07l-1185.28 -1185.29c-108.98,-108.97 -286.28,-110.55 -397.23,-4.72 -1.63,1.55 -3.25,3.12 -4.85,4.72l-0.38 0.38z"/>
   </g>
  </g>
 </g>
</svg>
